<?xml version="1.0" encoding="UTF-8"?>
<svg xmlns="http://www.w3.org/2000/svg" xmlns:xlink="http://www.w3.org/1999/xlink" width="4999pt" height="1879pt" viewBox="0 0 4999 1879" version="1.1">
<g id="surface1">
<path style=" stroke:none;fill-rule:nonzero;fill:rgb(96.470588%,55.294118%,6.666667%);fill-opacity:1;" d="M 1389.453125 646.445312 L 1098.917969 549.476562 L 1098.917969 129.289062 L 1389.808594 215.480469 L 1389.453125 646.445312 "/>
<path style=" stroke:none;fill-rule:nonzero;fill:rgb(96.470588%,55.294118%,6.666667%);fill-opacity:1;" d="M 1465.222656 215.480469 L 1756.113281 129.289062 L 1755.101562 549.1875 L 1465.222656 646.445312 L 1465.222656 215.480469 "/>
<path style=" stroke:none;fill-rule:nonzero;fill:rgb(96.470588%,55.294118%,6.666667%);fill-opacity:1;" d="M 1696.859375 83.789062 L 1425.75 0 L 1158.171875 83.789062 L 1426.136719 155.621094 L 1696.859375 83.789062 "/>
<path style=" stroke:none;fill-rule:nonzero;fill:rgb(96.470588%,55.294118%,6.666667%);fill-opacity:1;" d="M 2122.066406 646.445312 L 1831.53125 549.476562 L 1831.53125 129.289062 L 2122.421875 215.480469 L 2122.066406 646.445312 "/>
<path style=" stroke:none;fill-rule:nonzero;fill:rgb(96.470588%,55.294118%,6.666667%);fill-opacity:1;" d="M 2197.835938 215.480469 L 2488.726562 129.289062 L 2487.714844 549.1875 L 2197.835938 646.445312 L 2197.835938 215.480469 "/>
<path style=" stroke:none;fill-rule:nonzero;fill:rgb(96.470588%,55.294118%,6.666667%);fill-opacity:1;" d="M 2429.472656 83.789062 L 2158.363281 0 L 1890.785156 83.789062 L 2158.75 155.621094 L 2429.472656 83.789062 "/>
<path style=" stroke:none;fill-rule:nonzero;fill:rgb(96.470588%,55.294118%,6.666667%);fill-opacity:1;" d="M 290.890625 829.605469 L 0 743.410156 L 0 1163.601562 L 290.535156 1260.566406 L 290.890625 829.605469 "/>
<path style=" stroke:none;fill-rule:nonzero;fill:rgb(96.470588%,55.294118%,6.666667%);fill-opacity:1;" d="M 366.304688 829.605469 L 657.195312 743.410156 L 656.1875 1163.320312 L 366.304688 1260.566406 L 366.304688 829.605469 "/>
<path style=" stroke:none;fill-rule:nonzero;fill:rgb(96.470588%,55.294118%,6.666667%);fill-opacity:1;" d="M 597.941406 697.914062 L 326.832031 614.121094 L 59.253906 697.914062 L 327.222656 769.742188 L 597.941406 697.914062 "/>
<path style=" stroke:none;fill-rule:nonzero;fill:rgb(96.470588%,55.294118%,6.666667%);fill-opacity:1;" d="M 1023.148438 1260.566406 L 732.613281 1163.601562 L 732.613281 743.410156 L 1023.503906 829.605469 L 1023.148438 1260.566406 "/>
<path style=" stroke:none;fill-rule:nonzero;fill:rgb(96.470588%,55.294118%,6.666667%);fill-opacity:1;" d="M 1098.917969 829.605469 L 1389.808594 743.410156 L 1388.796875 1163.320312 L 1098.917969 1260.566406 L 1098.917969 829.605469 "/>
<path style=" stroke:none;fill-rule:nonzero;fill:rgb(96.470588%,55.294118%,6.666667%);fill-opacity:1;" d="M 1330.554688 697.914062 L 1059.441406 614.121094 L 791.867188 697.914062 L 1059.835938 769.742188 L 1330.554688 697.914062 "/>
<path style=" stroke:none;fill-rule:nonzero;fill:rgb(96.470588%,55.294118%,6.666667%);fill-opacity:1;" d="M 656.84375 1874.691406 L 366.304688 1777.722656 L 366.304688 1357.535156 L 657.195312 1443.726562 L 656.84375 1874.691406 "/>
<path style=" stroke:none;fill-rule:nonzero;fill:rgb(96.470588%,55.294118%,6.666667%);fill-opacity:1;" d="M 732.613281 1443.726562 L 1023.503906 1357.535156 L 1022.492188 1777.441406 L 732.613281 1874.691406 L 732.613281 1443.726562 "/>
<path style=" stroke:none;fill-rule:nonzero;fill:rgb(96.470588%,55.294118%,6.666667%);fill-opacity:1;" d="M 964.246094 1312.035156 L 693.136719 1228.246094 L 425.5625 1312.035156 L 693.527344 1383.867188 L 964.246094 1312.035156 "/>
<path style=" stroke:none;fill-rule:nonzero;fill:rgb(6.27451%,5.882353%,5.098039%);fill-opacity:1;" d="M 1943.46875 1503.253906 L 1922.09375 1503.328125 C 1914.25 1503.328125 1904.253906 1508.628906 1901.796875 1517.21875 L 1836.949219 1745.683594 L 1772.8125 1517.714844 C 1770.886719 1510.570312 1764.152344 1503.328125 1754.992188 1503.328125 L 1729.6875 1503.328125 C 1720.570312 1503.328125 1713.925781 1510.664062 1712.082031 1517.863281 L 1652.417969 1743.460938 L 1590.769531 1517.164062 C 1588.335938 1508.890625 1578.089844 1503.328125 1570.050781 1503.328125 L 1539.292969 1503.277344 C 1532.722656 1503.277344 1526.613281 1506.097656 1523.335938 1510.644531 C 1521.117188 1513.726562 1520.503906 1517.21875 1521.527344 1520.257812 L 1616.765625 1857.4375 C 1618.867188 1864.53125 1625.007812 1871.671875 1633.996094 1871.671875 L 1664.582031 1871.671875 C 1672.84375 1871.671875 1680.085938 1865.648438 1682.175781 1857.105469 L 1740.792969 1632.5 L 1804.585938 1857.363281 C 1806.503906 1864.25 1812.675781 1871.671875 1821.703125 1871.671875 L 1851.796875 1871.671875 C 1860.167969 1871.671875 1867.210938 1865.855469 1869.28125 1857.332031 L 1960.953125 1520.394531 C 1962.03125 1517.148438 1961.40625 1513.542969 1959.21875 1510.503906 C 1956 1506.03125 1949.964844 1503.253906 1943.46875 1503.253906 "/>
<path style=" stroke:none;fill-rule:nonzero;fill:rgb(6.27451%,5.882353%,5.098039%);fill-opacity:1;" d="M 2207.941406 1646.410156 L 2046.359375 1646.410156 C 2050.074219 1601.0625 2079.519531 1554.042969 2129.402344 1552.234375 C 2182.484375 1553.96875 2206.769531 1599.910156 2207.941406 1646.410156 Z M 2129.28125 1500.84375 C 2020.132812 1500.84375 1970.425781 1597.339844 1970.425781 1686.992188 C 1970.425781 1798.882812 2032.222656 1871.175781 2127.859375 1871.175781 C 2196.304688 1871.175781 2248.484375 1836.59375 2271.023438 1776.171875 C 2272.230469 1772.714844 2271.851562 1768.964844 2269.964844 1765.601562 C 2267.671875 1761.519531 2263.320312 1758.441406 2258.167969 1757.308594 L 2227.875 1751.511719 C 2219.738281 1750.238281 2210.417969 1755.054688 2207.339844 1762.046875 C 2192.621094 1795.617188 2165.796875 1814.667969 2132.128906 1815.660156 C 2099.730469 1814.660156 2069.984375 1795.414062 2056.355469 1766.660156 C 2045.28125 1743.171875 2043.644531 1720.019531 2043.460938 1696.476562 L 2262.824219 1696.402344 C 2267.421875 1696.402344 2272.1875 1694.375 2275.546875 1690.972656 C 2278.359375 1688.148438 2279.890625 1684.636719 2279.855469 1681.125 C 2279.316406 1593.960938 2239.488281 1500.84375 2129.28125 1500.84375 "/>
<path style=" stroke:none;fill-rule:nonzero;fill:rgb(6.27451%,5.882353%,5.098039%);fill-opacity:1;" d="M 2549.726562 1687.53125 C 2549.726562 1708.175781 2545.988281 1811.253906 2472.757812 1813.890625 C 2448.21875 1812.953125 2423.417969 1798.527344 2409.5625 1777.199219 C 2399.359375 1761.066406 2393.402344 1738.765625 2391.871094 1711.171875 L 2391.871094 1650.527344 C 2393.066406 1604.066406 2425.765625 1553.085938 2472.523438 1551.109375 C 2546 1554.007812 2549.726562 1665.25 2549.726562 1687.53125 Z M 2484.246094 1497.714844 L 2478.4375 1497.714844 C 2442.207031 1497.714844 2413.730469 1512.765625 2391.871094 1543.613281 L 2391.839844 1401.472656 C 2391.839844 1393.488281 2383.597656 1386.214844 2374.492188 1386.214844 L 2342.945312 1386.214844 C 2334.707031 1386.214844 2325.484375 1392.742188 2325.460938 1401.472656 L 2325.460938 1845.191406 C 2325.492188 1853.25 2333.734375 1860.574219 2342.828125 1860.574219 L 2352.09375 1860.523438 C 2360.84375 1860.523438 2367.070312 1853.476562 2369.171875 1846.925781 L 2379.039062 1815.605469 C 2401.964844 1848.164062 2436.496094 1867.289062 2473.449219 1867.289062 L 2479.105469 1867.289062 C 2576.445312 1867.289062 2620.015625 1772.605469 2620.015625 1678.773438 C 2620.015625 1632.066406 2608.496094 1587.410156 2588.425781 1556.253906 C 2565.230469 1520.148438 2525.304688 1497.714844 2484.246094 1497.714844 "/>
<path style=" stroke:none;fill-rule:nonzero;fill:rgb(6.27451%,5.882353%,5.098039%);fill-opacity:1;" d="M 2965.429688 1677.546875 C 2944.917969 1662.808594 2920.257812 1657.882812 2895.550781 1652.949219 L 2848.179688 1644.167969 C 2814.1875 1638.578125 2794.515625 1629.460938 2794.515625 1599.46875 C 2794.515625 1567.757812 2827.375 1555.636719 2855.238281 1554.886719 C 2889.261719 1555.742188 2914.847656 1570.925781 2927.269531 1597.625 C 2930.222656 1603.917969 2936.761719 1608.148438 2943.558594 1608.148438 C 2944.722656 1608.148438 2945.910156 1608.019531 2947.027344 1607.777344 L 2976.59375 1601.242188 C 2981.417969 1600.179688 2985.921875 1596.871094 2988.335938 1592.570312 C 2990.265625 1589.15625 2990.683594 1585.429688 2989.53125 1582.097656 C 2971.441406 1529.402344 2925.515625 1501.554688 2856.035156 1501.554688 C 2793.257812 1501.691406 2726.167969 1529.609375 2726.167969 1607.578125 C 2726.167969 1660.867188 2759.652344 1694.707031 2825.761719 1708.175781 L 2878.789062 1718.28125 C 2907.898438 1723.851562 2937.667969 1733.765625 2937.667969 1765.023438 C 2937.667969 1811.296875 2883.820312 1816.015625 2867.539062 1816.351562 C 2831.019531 1815.5625 2789.667969 1799.273438 2779.628906 1764.773438 C 2777.613281 1757.1875 2768.066406 1751.824219 2759.695312 1753.566406 L 2728.773438 1759.945312 C 2724.121094 1760.925781 2719.867188 1763.953125 2717.386719 1768.039062 C 2715.308594 1771.445312 2714.714844 1775.257812 2715.675781 1778.738281 C 2731.628906 1835.980469 2786.886719 1870.5 2863.488281 1871.078125 L 2865.191406 1871.09375 C 2933.605469 1871.09375 3006.703125 1841.796875 3006.703125 1759.613281 C 3006.703125 1726.160156 2991.652344 1696.25 2965.429688 1677.546875 "/>
<path style=" stroke:none;fill-rule:nonzero;fill:rgb(6.27451%,5.882353%,5.098039%);fill-opacity:1;" d="M 3278.167969 1646.742188 L 3116.542969 1646.742188 C 3120.238281 1601.351562 3149.683594 1554.3125 3199.566406 1552.585938 C 3252.625 1554.269531 3276.941406 1600.207031 3278.167969 1646.742188 Z M 3199.476562 1501.152344 C 3090.308594 1501.152344 3040.585938 1597.65625 3040.585938 1687.304688 C 3040.585938 1799.1875 3102.398438 1871.472656 3198.046875 1871.472656 C 3266.5 1871.472656 3318.679688 1836.882812 3341.238281 1776.472656 C 3342.433594 1773.015625 3342.058594 1769.253906 3340.160156 1765.886719 C 3337.867188 1761.796875 3333.503906 1758.71875 3328.363281 1757.605469 L 3298.027344 1751.8125 C 3290.925781 1750.65625 3281.023438 1754.332031 3277.535156 1762.359375 C 3262.804688 1795.910156 3235.96875 1814.957031 3202.332031 1815.992188 C 3169.90625 1814.957031 3140.167969 1795.714844 3126.59375 1766.96875 C 3115.496094 1743.539062 3113.847656 1720.363281 3113.6875 1696.765625 L 3333.03125 1696.710938 C 3337.597656 1696.710938 3342.328125 1694.699219 3345.6875 1691.316406 C 3348.511719 1688.480469 3350.042969 1684.96875 3350.007812 1681.433594 C 3349.503906 1594.28125 3309.703125 1501.152344 3199.476562 1501.152344 "/>
<path style=" stroke:none;fill-rule:nonzero;fill:rgb(6.27451%,5.882353%,5.098039%);fill-opacity:1;" d="M 3557.144531 1505.257812 C 3552.867188 1504.785156 3548.75 1504.558594 3544.753906 1504.558594 C 3507.941406 1504.558594 3478.042969 1524.574219 3457.292969 1562.8125 L 3457.367188 1529.324219 C 3457.335938 1521.214844 3449.246094 1514.089844 3440.054688 1514.089844 L 3412.65625 1514.089844 C 3403.671875 1514.089844 3395.742188 1521.246094 3395.679688 1529.457031 L 3395.636719 1854.757812 C 3395.636719 1862.921875 3403.566406 1870.089844 3412.613281 1870.089844 L 3444.582031 1870.078125 C 3452.898438 1870.078125 3462.261719 1863.550781 3462.335938 1854.757812 L 3462.355469 1690.757812 C 3462.355469 1663.710938 3464.878906 1643.339844 3477.796875 1619.234375 C 3496.25 1584.902344 3522.023438 1568.058594 3556.582031 1567.789062 C 3565.246094 1567.726562 3572.851562 1560.164062 3572.851562 1551.597656 L 3572.851562 1521.171875 C 3572.851562 1513.207031 3565.945312 1506.214844 3557.144531 1505.257812 "/>
<path style=" stroke:none;fill-rule:nonzero;fill:rgb(6.27451%,5.882353%,5.098039%);fill-opacity:1;" d="M 3892.753906 1498.867188 L 3867.511719 1498.878906 C 3859.605469 1498.878906 3849.46875 1504.558594 3847.011719 1512.886719 L 3765.183594 1770.074219 L 3681.625 1513.144531 C 3679.15625 1504.613281 3668.996094 1498.878906 3661.046875 1498.878906 L 3624.996094 1498.847656 C 3618.382812 1498.847656 3611.980469 1501.796875 3608.707031 1506.355469 C 3606.507812 1509.40625 3605.90625 1512.867188 3606.992188 1516.09375 L 3721.355469 1855.359375 C 3723.554688 1862.074219 3729.382812 1869.917969 3738.605469 1869.917969 L 3782.226562 1869.917969 C 3790.234375 1869.917969 3796.792969 1864.46875 3799.800781 1855.332031 L 3910.726562 1516.203125 C 3911.835938 1512.984375 3911.242188 1509.511719 3909.054688 1506.453125 C 3905.757812 1501.851562 3899.371094 1498.867188 3892.753906 1498.867188 "/>
<path style=" stroke:none;fill-rule:nonzero;fill:rgb(6.27451%,5.882353%,5.098039%);fill-opacity:1;" d="M 3975.691406 1368.460938 C 3952.441406 1368.460938 3933.535156 1387.417969 3933.535156 1410.75 C 3933.535156 1434.074219 3952.441406 1453.023438 3975.691406 1453.023438 C 3998.953125 1453.023438 4017.882812 1434.074219 4017.882812 1410.75 C 4017.882812 1387.417969 3998.953125 1368.460938 3975.691406 1368.460938 "/>
<path style=" stroke:none;fill-rule:nonzero;fill:rgb(6.27451%,5.882353%,5.098039%);fill-opacity:1;" d="M 3993.046875 1496.800781 L 3958.433594 1496.769531 C 3949.015625 1496.769531 3940.441406 1504.386719 3940.441406 1512.734375 L 3940.269531 1858.140625 C 3940.269531 1862.320312 3942.421875 1866.472656 3946.148438 1869.550781 C 3949.566406 1872.351562 3953.929688 1873.964844 3958.3125 1873.964844 L 3993.175781 1874.019531 L 3993.199219 1874.019531 C 4002.753906 1873.9375 4011.148438 1866.527344 4011.148438 1858.164062 L 4011.148438 1512.734375 C 4011.148438 1504.246094 4002.679688 1496.800781 3993.046875 1496.800781 "/>
<path style=" stroke:none;fill-rule:nonzero;fill:rgb(6.27451%,5.882353%,5.098039%);fill-opacity:1;" d="M 4316.550781 1731.027344 L 4287.644531 1731.136719 C 4279.574219 1731.136719 4272.808594 1735.988281 4269.804688 1744.40625 C 4259.246094 1789.960938 4235.328125 1813.570312 4199.0625 1814.613281 C 4128.429688 1812.511719 4122.945312 1714.058594 4122.945312 1683.933594 C 4122.945312 1623.859375 4143.75 1559.03125 4201.832031 1557.316406 C 4236.890625 1558.394531 4262.390625 1583.535156 4270.039062 1624.496094 C 4271.484375 1632.855469 4277.90625 1639.179688 4286.675781 1640.277344 L 4317.605469 1640.582031 C 4326.851562 1639.578125 4334.101562 1632.585938 4334.035156 1623.910156 C 4323.089844 1549.886719 4271.796875 1502.039062 4203.242188 1502.039062 L 4200.871094 1502.101562 L 4198.191406 1502.039062 C 4098.492188 1502.039062 4053.855469 1595.089844 4053.855469 1687.304688 C 4053.855469 1771.851562 4091.488281 1870.574219 4197.628906 1870.574219 L 4202.714844 1870.574219 C 4269.554688 1870.574219 4320.007812 1823.71875 4334.457031 1747.75 C 4334.78125 1744.128906 4333.53125 1740.511719 4330.964844 1737.570312 C 4327.648438 1733.753906 4322.355469 1731.3125 4316.550781 1731.027344 "/>
<path style=" stroke:none;fill-rule:nonzero;fill:rgb(6.27451%,5.882353%,5.098039%);fill-opacity:1;" d="M 4602.03125 1646.742188 L 4440.382812 1646.742188 C 4444.078125 1601.339844 4473.535156 1554.3125 4523.449219 1552.585938 C 4576.519531 1554.269531 4600.824219 1600.207031 4602.03125 1646.742188 Z M 4523.339844 1501.152344 C 4414.183594 1501.152344 4364.472656 1597.65625 4364.472656 1687.304688 C 4364.472656 1799.1875 4426.28125 1871.472656 4521.929688 1871.472656 C 4590.351562 1871.472656 4642.507812 1836.90625 4665.089844 1776.488281 C 4666.265625 1773.003906 4665.878906 1769.234375 4663.992188 1765.886719 C 4661.664062 1761.769531 4657.429688 1758.757812 4652.207031 1757.605469 L 4621.910156 1751.8125 C 4614.777344 1750.65625 4604.910156 1754.332031 4601.417969 1762.359375 C 4586.648438 1795.910156 4559.800781 1814.957031 4526.175781 1816.003906 C 4493.757812 1814.957031 4464.03125 1795.714844 4450.457031 1766.96875 C 4439.347656 1743.503906 4437.699219 1720.332031 4437.527344 1696.765625 L 4656.890625 1696.734375 C 4661.503906 1696.734375 4666.265625 1694.699219 4669.636719 1691.28125 C 4672.4375 1688.429688 4673.945312 1684.914062 4673.894531 1681.433594 C 4673.386719 1594.28125 4633.578125 1501.152344 4523.339844 1501.152344 "/>
<path style=" stroke:none;fill-rule:nonzero;fill:rgb(6.27451%,5.882353%,5.098039%);fill-opacity:1;" d="M 4948.699219 1677.546875 C 4928.152344 1662.792969 4903.457031 1657.875 4878.796875 1652.949219 L 4831.425781 1644.167969 C 4797.46875 1638.578125 4777.804688 1629.460938 4777.804688 1599.46875 C 4777.804688 1558.566406 4828.558594 1555.152344 4838.460938 1554.886719 C 4872.515625 1555.742188 4898.105469 1570.925781 4910.503906 1597.636719 C 4913.476562 1603.929688 4920.039062 1608.148438 4926.847656 1608.148438 C 4928.023438 1608.148438 4929.195312 1608.019531 4930.339844 1607.777344 L 4959.878906 1601.242188 C 4964.707031 1600.179688 4969.199219 1596.859375 4971.613281 1592.5625 C 4973.53125 1589.144531 4973.949219 1585.429688 4972.796875 1582.097656 C 4954.730469 1529.402344 4908.792969 1501.554688 4839.28125 1501.554688 C 4776.523438 1501.691406 4709.457031 1529.609375 4709.457031 1607.578125 C 4709.457031 1660.878906 4742.929688 1694.722656 4809.027344 1708.175781 L 4862.078125 1718.28125 C 4891.1875 1723.851562 4920.957031 1733.765625 4920.957031 1765.023438 C 4920.957031 1811.296875 4867.109375 1816.015625 4850.828125 1816.351562 C 4816.96875 1815.625 4773.625 1801.640625 4762.925781 1764.816406 C 4760.964844 1757.1875 4751.429688 1751.832031 4742.910156 1753.566406 L 4712.042969 1759.945312 C 4707.367188 1760.941406 4703.101562 1763.988281 4700.621094 1768.082031 C 4698.5625 1771.496094 4697.972656 1775.277344 4698.941406 1778.738281 C 4714.855469 1835.980469 4770.101562 1870.5 4846.714844 1871.078125 L 4848.414062 1871.09375 C 4916.839844 1871.09375 4989.949219 1841.796875 4989.949219 1759.613281 C 4989.949219 1726.136719 4974.910156 1696.21875 4948.699219 1677.546875 "/>
<path style=" stroke:none;fill-rule:evenodd;fill:rgb(6.27451%,5.882353%,5.098039%);fill-opacity:1;" d="M 3541.480469 831.78125 L 3541.480469 753.34375 C 3541.523438 741.449219 3550.550781 733.46875 3561.390625 733.476562 L 3912.773438 733.46875 C 3923.988281 733.46875 3933.039062 741.644531 3933.039062 753.257812 L 3933.039062 820.523438 C 3932.929688 831.78125 3923.417969 846.503906 3906.566406 869.882812 L 3724.566406 1129.757812 C 3792.097656 1128.15625 3863.589844 1138.269531 3924.957031 1172.773438 C 3938.824219 1180.546875 3942.507812 1192.089844 3943.640625 1203.355469 L 3943.640625 1287.046875 C 3943.640625 1298.589844 3931.011719 1311.925781 3917.761719 1304.976562 C 3809.605469 1248.308594 3666.066406 1242.121094 3546.445312 1305.632812 C 3534.238281 1312.152344 3521.441406 1299.019531 3521.441406 1287.480469 L 3521.441406 1207.957031 C 3521.441406 1195.265625 3521.699219 1173.46875 3534.507812 1154.054688 L 3745.402344 851.539062 L 3561.808594 851.496094 C 3550.570312 851.496094 3541.585938 843.5 3541.480469 831.78125 "/>
<path style=" stroke:none;fill-rule:evenodd;fill:rgb(6.27451%,5.882353%,5.098039%);fill-opacity:1;" d="M 2259.730469 1321.484375 L 2152.800781 1321.484375 C 2142.640625 1320.820312 2134.507812 1313.15625 2133.699219 1303.382812 L 2133.777344 754.679688 C 2133.777344 743.703125 2143.019531 734.933594 2154.398438 734.933594 L 2253.957031 734.878906 C 2264.386719 735.460938 2272.722656 743.324219 2273.433594 753.300781 L 2273.433594 824.996094 L 2275.417969 824.996094 C 2301.339844 755.683594 2350.242188 723.402344 2416.089844 723.402344 C 2482.941406 723.402344 2524.859375 755.683594 2554.800781 824.996094 C 2580.765625 755.683594 2639.621094 723.402344 2702.542969 723.402344 C 2747.445312 723.402344 2796.285156 741.847656 2826.222656 783.394531 C 2860.148438 829.605469 2853.15625 896.53125 2853.15625 955.441406 L 2853.09375 1301.714844 C 2853.09375 1312.664062 2843.859375 1321.484375 2832.492188 1321.484375 L 2725.726562 1321.484375 C 2714.972656 1320.820312 2706.515625 1312.242188 2706.515625 1301.765625 L 2706.515625 1010.855469 C 2706.515625 987.777344 2708.488281 930.023438 2703.511719 908.101562 C 2695.507812 871.121094 2671.546875 860.789062 2640.65625 860.789062 C 2614.683594 860.789062 2587.726562 878.109375 2576.746094 905.761719 C 2565.78125 933.515625 2566.792969 979.695312 2566.792969 1010.855469 L 2566.792969 1301.714844 C 2566.792969 1312.664062 2557.558594 1321.484375 2546.171875 1321.484375 L 2439.382812 1321.484375 C 2428.683594 1320.820312 2420.207031 1312.242188 2420.207031 1301.765625 L 2420.066406 1010.855469 C 2420.066406 949.65625 2430.074219 859.632812 2354.25 859.632812 C 2277.410156 859.632812 2280.40625 947.363281 2280.40625 1010.855469 L 2280.339844 1301.714844 C 2280.382812 1312.664062 2271.140625 1321.484375 2259.730469 1321.484375 "/>
<path style=" stroke:none;fill-rule:evenodd;fill:rgb(6.27451%,5.882353%,5.098039%);fill-opacity:1;" d="M 4236.535156 835.363281 C 4157.660156 835.363281 4152.691406 942.730469 4152.691406 1009.726562 C 4152.691406 1076.679688 4151.703125 1219.839844 4235.5625 1219.839844 C 4318.402344 1219.839844 4322.378906 1104.375 4322.378906 1033.953125 C 4322.378906 987.777344 4320.40625 932.371094 4306.433594 888.492188 C 4294.421875 850.375 4270.492188 835.363281 4236.535156 835.363281 Z M 4235.5625 723.402344 C 4394.21875 723.402344 4480.050781 859.632812 4480.050781 1032.761719 C 4480.050781 1200.21875 4385.210938 1333.011719 4235.5625 1333.011719 C 4079.875 1333.011719 3995.03125 1196.746094 3995.03125 1027.019531 C 3995.03125 856.140625 4080.832031 723.402344 4235.5625 723.402344 "/>
<path style=" stroke:none;fill-rule:evenodd;fill:rgb(6.27451%,5.882353%,5.098039%);fill-opacity:1;" d="M 4685.828125 1321.484375 L 4579.308594 1321.484375 C 4568.578125 1320.820312 4560.121094 1312.242188 4560.121094 1301.765625 L 4559.972656 752.816406 C 4560.855469 742.820312 4569.734375 734.933594 4580.464844 734.933594 L 4679.65625 734.878906 C 4689.007812 735.394531 4696.679688 741.753906 4698.640625 750.253906 L 4698.640625 834.210938 L 4700.664062 834.210938 C 4730.5625 759.152344 4772.503906 723.402344 4846.316406 723.402344 C 4894.226562 723.402344 4941.15625 740.675781 4971.074219 788.027344 C 4999 831.886719 4999 905.761719 4999 958.878906 L 4999 1304.179688 C 4997.804688 1313.914062 4989.132812 1321.484375 4978.574219 1321.484375 L 4871.351562 1321.484375 C 4861.460938 1320.839844 4853.511719 1313.53125 4852.316406 1304.179688 L 4852.316406 1006.238281 C 4852.316406 946.203125 4859.320312 858.433594 4785.445312 858.433594 C 4759.511719 858.433594 4735.59375 875.792969 4723.601562 902.316406 C 4708.617188 935.789062 4706.632812 969.269531 4706.632812 1006.238281 L 4706.632812 1301.714844 C 4706.449219 1312.664062 4697.207031 1321.484375 4685.828125 1321.484375 "/>
<path style=" stroke:none;fill-rule:evenodd;fill:rgb(6.27451%,5.882353%,5.098039%);fill-opacity:1;" d="M 3369.144531 1320.09375 C 3362.054688 1326.421875 3351.90625 1326.839844 3343.910156 1322.582031 C 3308.410156 1293.070312 3302.035156 1279.390625 3282.628906 1251.320312 C 3223.945312 1311.097656 3182.390625 1329.023438 3106.40625 1329.023438 C 3016.367188 1329.023438 2946.382812 1273.476562 2946.382812 1162.394531 C 2946.382812 1075.632812 2993.367188 1016.613281 3060.367188 987.667969 C 3118.375 962.207031 3199.390625 957.566406 3261.382812 950.601562 L 3261.382812 936.734375 C 3261.382812 911.292969 3263.378906 881.195312 3248.359375 859.21875 C 3235.398438 839.550781 3210.390625 831.46875 3188.359375 831.46875 C 3147.582031 831.46875 3111.347656 852.375 3102.429688 895.679688 C 3100.617188 905.296875 3093.550781 914.851562 3083.867188 915.3125 L 2980.277344 904.089844 C 2971.507812 902.121094 2961.800781 895.125 2964.332031 881.769531 C 2988.140625 756.039062 3101.652344 718.050781 3203.390625 718.050781 C 3255.363281 718.050781 3323.398438 731.925781 3364.402344 771.261719 C 3416.386719 819.882812 3411.375 884.675781 3411.375 955.265625 L 3411.375 1121.816406 C 3411.375 1171.917969 3432.203125 1193.90625 3451.777344 1220.910156 C 3458.554688 1230.648438 3460.082031 1242.1875 3451.378906 1249.332031 C 3429.550781 1267.625 3390.753906 1301.292969 3369.433594 1320.332031 Z M 3261.382812 1059.402344 C 3261.382812 1101.070312 3262.375 1135.816406 3241.367188 1172.8125 C 3224.367188 1202.925781 3197.34375 1221.421875 3167.339844 1221.421875 C 3126.378906 1221.421875 3102.386719 1190.191406 3102.386719 1143.882812 C 3102.386719 1052.851562 3184.070312 1036.277344 3261.382812 1036.277344 L 3261.382812 1059.402344 "/>
<path style=" stroke:none;fill-rule:evenodd;fill:rgb(6.27451%,5.882353%,5.098039%);fill-opacity:1;" d="M 1967.765625 1320.09375 C 1960.695312 1326.421875 1950.472656 1326.839844 1942.476562 1322.582031 C 1906.976562 1293.070312 1900.621094 1279.390625 1881.195312 1251.320312 C 1822.542969 1311.097656 1780.96875 1329.023438 1704.9375 1329.023438 C 1614.9375 1329.023438 1544.929688 1273.476562 1544.929688 1162.394531 C 1544.929688 1075.632812 1591.957031 1016.613281 1658.957031 987.667969 C 1716.972656 962.207031 1797.980469 957.566406 1859.972656 950.601562 L 1859.972656 936.734375 C 1859.972656 911.292969 1861.988281 881.195312 1846.96875 859.21875 C 1833.976562 839.550781 1808.949219 831.46875 1786.980469 831.46875 C 1746.203125 831.46875 1709.925781 852.375 1701.039062 895.679688 C 1699.1875 905.296875 1692.152344 914.851562 1682.476562 915.3125 L 1578.84375 904.089844 C 1570.09375 902.121094 1560.378906 895.125 1562.886719 881.769531 C 1586.699219 756.039062 1700.21875 718.050781 1801.945312 718.050781 C 1853.984375 718.050781 1921.964844 731.925781 1962.980469 771.261719 C 2014.984375 819.882812 2009.964844 884.675781 2009.964844 955.265625 L 2009.964844 1121.816406 C 2009.964844 1171.917969 2030.800781 1193.90625 2050.324219 1220.910156 C 2057.132812 1230.648438 2058.671875 1242.1875 2049.988281 1249.332031 C 2028.140625 1267.625 1989.320312 1301.292969 1968.011719 1320.332031 Z M 1859.972656 1059.402344 C 1859.972656 1101.070312 1860.953125 1135.816406 1839.988281 1172.8125 C 1822.996094 1202.925781 1795.957031 1221.421875 1765.992188 1221.421875 C 1724.945312 1221.421875 1700.964844 1190.191406 1700.964844 1143.882812 C 1700.964844 1052.851562 1782.628906 1036.277344 1859.972656 1036.277344 L 1859.972656 1059.402344 "/>
</g>
</svg>
