<?xml version="1.0" encoding="UTF-8"?>
<svg xmlns="http://www.w3.org/2000/svg" xmlns:xlink="http://www.w3.org/1999/xlink" width="5000pt" height="1746pt" viewBox="0 0 5000 1746" version="1.1">
<g id="surface1">
<path style=" stroke:none;fill-rule:nonzero;fill:rgb(3.529412%,18.039216%,12.54902%);fill-opacity:1;" d="M 590.453125 0 L 863.75 0 L 863.75 1265.0625 C 723.558594 1291.683594 620.621094 1302.339844 508.808594 1302.339844 C 175.152344 1302.320312 1.230469 1151.488281 1.230469 862.199219 C 1.230469 583.566406 185.8125 402.558594 471.53125 402.558594 C 515.894531 402.558594 549.613281 406.09375 590.453125 416.742188 Z M 590.453125 636.789062 C 558.507812 626.15625 531.890625 622.605469 498.160156 622.605469 C 359.730469 622.605469 279.863281 707.796875 279.863281 856.863281 C 279.863281 1002.402344 356.183594 1082.257812 496.386719 1082.257812 C 526.554688 1082.257812 551.410156 1080.496094 590.453125 1075.171875 Z M 590.453125 636.789062 "/>
<path style=" stroke:none;fill-rule:nonzero;fill:rgb(3.529412%,18.039216%,12.54902%);fill-opacity:1;" d="M 1298.535156 422.066406 L 1298.535156 1055.628906 C 1298.535156 1273.925781 1282.550781 1378.636719 1234.648438 1469.140625 C 1190.273438 1556.117188 1131.699219 1611.121094 1011.027344 1671.480469 L 757.238281 1550.796875 C 877.921875 1493.996094 936.484375 1444.320312 973.75 1367.976562 C 1012.804688 1289.90625 1025.238281 1199.382812 1025.238281 961.574219 L 1025.238281 422.066406 Z M 1025.238281 1.453125 L 1298.535156 1.453125 L 1298.535156 281.863281 L 1025.238281 281.863281 Z M 1463.617188 484.175781 C 1584.3125 427.402344 1699.660156 402.558594 1825.667969 402.558594 C 1965.871094 402.558594 2058.152344 439.8125 2098.976562 512.582031 C 2122.035156 553.398438 2129.132812 606.632812 2129.132812 720.230469 L 2129.132812 1275.699219 C 2006.664062 1293.445312 1852.273438 1305.878906 1738.703125 1305.878906 C 1509.769531 1305.878906 1406.820312 1225.988281 1406.820312 1048.53125 C 1406.820312 856.839844 1543.472656 768.109375 1878.894531 739.707031 L 1878.894531 679.371094 C 1878.894531 629.679688 1854.050781 611.945312 1784.828125 611.945312 C 1683.679688 611.945312 1570.09375 640.339844 1463.59375 695.363281 Z M 1891.339844 918.984375 C 1710.308594 936.730469 1651.734375 965.125 1651.734375 1036.117188 C 1651.734375 1089.34375 1685.464844 1114.1875 1759.996094 1114.1875 C 1800.824219 1114.1875 1838.078125 1110.652344 1891.328125 1101.777344 Z M 2262.25 464.65625 C 2423.738281 422.066406 2556.84375 402.558594 2691.722656 402.558594 C 2831.929688 402.558594 2933.089844 434.488281 2993.449219 496.609375 C 3050.238281 555.160156 3067.972656 619.046875 3067.972656 755.722656 L 3067.972656 1291.671875 L 2794.660156 1291.671875 L 2794.660156 766.371094 C 2794.660156 661.667969 2759.171875 622.605469 2661.566406 622.605469 C 2624.300781 622.605469 2590.585938 626.15625 2535.550781 642.125 L 2535.550781 1291.671875 L 2262.25 1291.671875 Z M 3174.21875 1440.746094 C 3270.066406 1490.449219 3365.894531 1513.496094 3467.046875 1513.496094 C 3646.269531 1513.496094 3722.589844 1440.746094 3722.589844 1266.816406 L 3722.589844 1261.492188 C 3669.363281 1288.097656 3616.101562 1298.757812 3545.128906 1298.757812 C 3305.535156 1298.757812 3152.886719 1140.808594 3152.886719 890.589844 C 3152.886719 579.992188 3378.296875 404.308594 3777.589844 404.308594 C 3894.722656 404.308594 4002.996094 416.71875 4134.316406 443.335938 L 4040.730469 640.476562 C 3967.972656 626.28125 4034.902344 638.578125 3979.914062 633.253906 L 3979.914062 661.65625 L 3983.453125 776.996094 L 3985.214844 926.082031 C 3986.992188 963.339844 3986.992188 1000.617188 3988.777344 1037.882812 L 3988.777344 1112.4375 C 3988.777344 1346.695312 3969.253906 1456.71875 3910.707031 1547.234375 C 3825.515625 1680.351562 3678.199219 1746 3468.789062 1746 C 3362.300781 1746 3270.046875 1730.027344 3174.195312 1692.761719 Z M 3717.289062 624.378906 L 3688.90625 624.378906 C 3635.679688 622.605469 3573.570312 636.789062 3530.957031 663.410156 C 3465.308594 700.6875 3431.554688 768.132812 3431.554688 863.960938 C 3431.554688 1000.628906 3499.023438 1078.710938 3619.695312 1078.710938 C 3656.960938 1078.710938 3687.140625 1071.597656 3722.609375 1060.964844 L 3722.609375 966.910156 C 3722.609375 934.957031 3720.859375 899.441406 3720.859375 862.199219 L 3719.097656 736.203125 L 3717.308594 645.6875 Z M 4558.625 398.996094 C 4831.921875 398.996094 4998.757812 571.152344 4998.757812 849.777344 C 4998.757812 1135.519531 4824.847656 1314.761719 4547.976562 1314.761719 C 4274.65625 1314.761719 4106.046875 1142.605469 4106.046875 865.757812 C 4106.070312 578.230469 4280.003906 398.996094 4558.625 398.996094 Z M 4553.277344 1094.679688 C 4657.992188 1094.679688 4720.113281 1007.714844 4720.113281 856.863281 C 4720.113281 707.796875 4659.765625 619.054688 4555.074219 619.054688 C 4446.804688 619.054688 4384.667969 706.035156 4384.667969 856.863281 C 4384.691406 1007.726562 4446.816406 1094.679688 4553.277344 1094.679688 Z M 4553.277344 1094.679688 "/>
</g>
</svg>
