<?xml version="1.0" standalone="no"?>
<!DOCTYPE svg PUBLIC "-//W3C//DTD SVG 20010904//EN"
 "http://www.w3.org/TR/2001/REC-SVG-20010904/DTD/svg10.dtd">
<svg version="1.0" xmlns="http://www.w3.org/2000/svg"
 width="1280.000000pt" height="576.000000pt" viewBox="0 0 1280.000000 576.000000"
 preserveAspectRatio="xMidYMid meet">

<g transform="translate(0.000000,576.000000) scale(0.100000,-0.100000)"
fill="#000000" stroke="none">
<path d="M782 2824 l3 -997 220 -118 c121 -65 223 -119 228 -119 4 0 7 233 7
517 0 301 4 513 9 508 5 -6 156 -293 336 -640 180 -346 341 -649 357 -672 15
-23 45 -56 66 -73 31 -27 277 -181 440 -277 l42 -25 0 1011 0 1011 -250 125
c-137 69 -252 125 -255 125 -3 0 -6 -253 -7 -562 l-3 -563 -61 125 c-33 69
-192 405 -354 747 l-293 622 -161 84 c-88 47 -198 103 -244 126 l-82 41 2
-996z"/>
<path d="M5080 2770 l0 -770 155 0 156 0 -3 489 c-2 269 0 487 4 485 3 -2 175
-217 382 -478 295 -372 383 -476 407 -485 18 -6 81 -11 140 -11 l109 0 0 770
0 770 -155 0 -155 0 2 -490 c2 -270 0 -489 -4 -488 -4 2 -165 203 -359 448
-414 524 -396 502 -423 517 -13 8 -65 12 -138 13 l-118 0 0 -770z"/>
<path d="M9630 2771 l0 -771 175 0 175 0 0 259 0 259 178 5 c199 5 264 18 376
74 130 65 213 178 242 329 18 94 18 141 0 226 -21 96 -61 170 -126 232 -64 62
-127 96 -232 127 -68 21 -97 23 -430 27 l-358 4 0 -771z m648 494 c100 -30
156 -110 157 -225 0 -80 -11 -122 -46 -170 -49 -67 -97 -83 -266 -88 l-143 -4
0 251 0 251 123 0 c82 0 141 -5 175 -15z"/>
<path d="M8296 3090 c-27 -11 -75 -39 -106 -63 l-56 -44 -17 48 c-15 42 -22
50 -55 59 -20 5 -79 10 -129 10 l-93 0 0 -550 0 -550 160 0 160 0 2 402 3 402
43 30 c34 24 55 31 105 33 72 4 102 -8 134 -56 23 -34 23 -35 23 -422 l0 -389
159 0 160 0 3 378 c3 359 4 379 24 412 61 105 216 109 271 8 16 -30 18 -70 21
-415 l4 -383 160 0 159 0 -3 403 c-5 448 -7 464 -75 564 -69 102 -184 150
-340 141 -128 -8 -193 -36 -270 -114 l-62 -63 -25 44 c-33 55 -95 109 -145
123 -58 18 -159 14 -215 -8z"/>
<path d="M6632 2683 c3 -410 3 -419 26 -475 95 -235 386 -296 609 -128 l52 40
12 -41 c21 -69 44 -79 175 -79 l114 0 0 550 0 550 -160 0 -160 0 0 -395 0
-395 -53 -35 c-33 -22 -74 -39 -111 -46 -52 -9 -62 -8 -104 13 -83 41 -82 36
-82 476 l0 382 -160 0 -161 0 3 -417z"/>
<path d="M10860 3097 c0 -3 97 -228 216 -499 119 -271 217 -497 217 -503 0 -5
-46 -106 -102 -223 -55 -118 -101 -216 -101 -218 0 -2 63 -4 139 -4 131 0 142
1 165 23 18 15 112 225 320 717 l295 695 -147 3 c-141 2 -147 2 -168 -20 -14
-15 -60 -131 -124 -318 -57 -162 -106 -302 -110 -310 -6 -10 -12 -1 -20 30
-28 105 -214 576 -236 600 -24 24 -29 25 -184 28 -88 2 -160 1 -160 -1z"/>
</g>
</svg>
