<?xml version="1.0" standalone="no"?>
<!DOCTYPE svg PUBLIC "-//W3C//DTD SVG 20010904//EN"
 "http://www.w3.org/TR/2001/REC-SVG-20010904/DTD/svg10.dtd">
<svg version="1.0" xmlns="http://www.w3.org/2000/svg"
 width="1200.000000pt" height="485.000000pt" viewBox="0 0 1200.000000 485.000000"
 preserveAspectRatio="xMidYMid meet">

<g transform="translate(0.000000,485.000000) scale(0.100000,-0.100000)"
fill="#000000" stroke="none">
<path d="M2212 2823 l3 -1218 175 0 175 0 0 1215 0 1215 -178 3 -177 2 2
-1217z"/>
<path d="M1100 3485 l0 -365 180 0 180 0 -2 363 -3 362 -177 3 -178 2 0 -365z"/>
<path d="M8630 3229 l0 -291 -52 47 c-58 51 -149 98 -218 114 -76 18 -211 13
-282 -9 -170 -52 -302 -198 -354 -390 -24 -87 -24 -262 -1 -349 42 -157 156
-305 280 -364 62 -30 169 -57 227 -57 123 0 275 64 363 151 l57 57 0 -58 c0
-31 3 -72 6 -89 l7 -31 133 0 134 0 0 780 0 780 -150 0 -150 0 0 -291z m-161
-375 c107 -57 171 -181 171 -328 0 -173 -82 -308 -213 -352 -66 -22 -186 -15
-243 14 -209 107 -245 462 -63 626 67 60 115 76 214 73 67 -3 90 -8 134 -33z"/>
<path d="M540 2030 l0 -1220 175 0 175 0 0 1220 0 1220 -175 0 -175 0 0 -1220z"/>
<path d="M1660 2875 l0 -365 175 0 175 0 0 365 0 365 -175 0 -175 0 0 -365z"/>
<path d="M4194 3110 c-112 -16 -205 -61 -285 -137 -65 -62 -69 -59 -69 43 l0
64 -135 0 -135 0 0 -810 0 -810 150 0 150 0 0 323 0 324 42 -39 c97 -90 208
-131 353 -131 152 1 256 44 361 150 171 174 214 489 99 731 -39 81 -131 186
-199 226 -93 54 -227 81 -332 66z m125 -256 c116 -62 177 -192 169 -352 -7
-118 -36 -191 -102 -257 -62 -62 -121 -85 -220 -85 -163 0 -279 112 -308 297
-21 137 23 276 113 357 67 60 115 76 214 73 67 -3 90 -8 134 -33z"/>
<path d="M5434 3110 c-172 -25 -305 -121 -387 -278 -53 -100 -71 -178 -71
-307 0 -179 49 -313 157 -431 101 -111 273 -176 416 -158 134 16 261 79 334
164 l37 44 0 -55 c0 -30 3 -71 6 -91 l7 -38 133 0 134 0 0 560 0 560 -134 0
-133 0 -7 -31 c-3 -17 -6 -56 -6 -85 l0 -54 -58 58 c-106 106 -280 164 -428
142z m305 -255 c104 -57 160 -156 169 -299 9 -139 -32 -252 -116 -327 -60 -53
-125 -73 -221 -67 -90 6 -137 27 -198 90 -140 144 -131 428 18 562 67 60 115
76 214 73 66 -3 90 -8 134 -32z"/>
<path d="M7080 3109 c-122 -16 -255 -92 -315 -179 -28 -41 -30 -42 -36 -19 -4
13 -7 57 -8 97 l-1 72 -140 0 -140 0 0 -560 0 -560 150 0 149 0 3 348 c3 338
4 348 26 389 35 67 79 110 144 143 51 25 73 30 131 30 91 0 135 -24 174 -94
l28 -51 5 -380 5 -380 148 -3 148 -3 -3 418 c-4 408 -4 420 -27 481 -70 190
-226 279 -441 251z"/>
<path d="M10920 3109 c-204 -30 -330 -155 -332 -328 -2 -195 106 -299 384
-372 148 -39 196 -62 214 -106 18 -41 10 -79 -24 -116 -71 -76 -297 -61 -482
32 l-79 40 -10 -37 c-6 -20 -15 -59 -21 -87 -6 -27 -13 -58 -16 -67 -4 -13 12
-25 70 -52 112 -53 206 -77 333 -83 189 -10 317 30 407 127 65 69 89 127 94
226 4 72 1 89 -21 136 -50 111 -161 183 -365 238 -165 44 -207 68 -218 125 -4
21 0 44 10 63 42 82 252 84 430 3 l64 -29 22 89 c12 49 20 95 17 103 -8 21
-154 74 -252 91 -95 16 -139 17 -225 4z"/>
<path d="M9478 3091 c-154 -50 -275 -173 -335 -341 -38 -109 -45 -292 -14
-405 30 -109 75 -189 146 -260 72 -73 159 -121 257 -141 166 -35 354 22 467
141 l50 52 7 -88 7 -89 133 0 134 0 0 560 0 560 -134 0 -134 0 -7 -83 -7 -84
-56 57 c-60 59 -152 111 -232 129 -72 17 -217 12 -282 -8z m387 -233 c112 -58
167 -157 173 -310 7 -170 -46 -285 -165 -355 -60 -35 -176 -44 -251 -19 -73
24 -142 90 -177 168 -37 81 -47 223 -21 310 30 105 117 199 210 228 57 17 176
6 231 -22z"/>
<path d="M1100 1975 l0 -365 178 2 177 3 3 363 2 362 -180 0 -180 0 0 -365z"/>
<path d="M1660 2125 l0 -175 175 0 175 0 0 175 0 175 -175 0 -175 0 0 -175z"/>
<path d="M1660 1375 l0 -365 175 0 175 0 0 365 0 365 -175 0 -175 0 0 -365z"/>
</g>
</svg>
