<?xml version="1.0" standalone="no"?>
<!DOCTYPE svg PUBLIC "-//W3C//DTD SVG 20010904//EN"
 "http://www.w3.org/TR/2001/REC-SVG-20010904/DTD/svg10.dtd">
<svg version="1.0" xmlns="http://www.w3.org/2000/svg"
 width="1280.000000pt" height="689.000000pt" viewBox="0 0 1280.000000 689.000000"
 preserveAspectRatio="xMidYMid meet">

<g transform="translate(0.000000,689.000000) scale(0.100000,-0.100000)"
fill="#000000" stroke="none">
<path d="M6119 3454 l-226 -85 -76 -157 c-256 -531 -436 -1130 -469 -1568 -10
-132 -10 -165 5 -255 30 -182 118 -318 244 -377 74 -34 207 -42 304 -18 140
35 349 164 549 339 41 36 78 64 81 61 4 -2 10 -21 14 -41 18 -96 119 -237 213
-297 165 -104 440 -103 651 4 91 45 241 156 352 258 l75 70 12 -58 c16 -75 71
-185 122 -243 24 -26 66 -59 102 -76 52 -26 73 -31 135 -31 183 0 348 113 556
381 l74 97 6 -112 c9 -185 60 -297 160 -348 34 -17 54 -20 121 -16 133 7 216
59 479 296 211 189 387 389 471 534 23 40 35 49 69 58 72 18 160 47 201 65
l39 17 -15 -24 c-85 -132 -173 -312 -213 -438 -34 -108 -39 -247 -12 -327 22
-62 85 -136 140 -165 143 -72 371 37 703 337 l61 55 6 -202 c4 -111 9 -203 12
-206 3 -3 92 15 198 39 l192 44 6 180 c7 206 29 357 63 431 44 95 344 423 438
478 29 17 58 26 75 24 26 -3 28 -7 31 -49 2 -34 -9 -77 -44 -175 -117 -325
-137 -385 -160 -479 -46 -189 -27 -337 52 -419 59 -61 87 -71 194 -70 82 0
106 4 172 31 109 43 252 142 396 272 l122 112 0 105 0 106 -52 -59 c-138 -156
-275 -266 -346 -279 -49 -9 -84 12 -99 60 -18 53 0 130 85 361 131 355 168
500 159 611 -6 78 -42 144 -99 182 -36 23 -52 27 -117 27 -152 0 -292 -93
-570 -374 -101 -102 -181 -177 -178 -166 3 11 17 63 31 115 14 52 50 169 81
259 31 90 54 166 51 168 -3 4 -307 -51 -403 -72 -16 -4 -32 -32 -71 -122 -99
-237 -160 -427 -192 -604 l-19 -108 -83 -79 c-172 -165 -227 -201 -300 -202
-54 0 -102 45 -118 111 -24 99 14 237 229 829 101 278 102 258 -13 245 l-61
-7 -48 -82 c-110 -188 -283 -335 -415 -353 l-41 -6 29 88 c37 107 55 211 46
261 -5 23 -21 51 -42 72 l-35 35 -78 -5 c-125 -7 -191 -57 -265 -198 -63 -121
-84 -249 -52 -323 15 -36 67 -87 108 -109 l28 -13 -67 -90 c-84 -115 -385
-415 -445 -444 -97 -46 -169 -13 -182 85 -14 103 18 245 167 744 l103 345 -52
3 c-50 3 -61 -2 -225 -93 -95 -52 -175 -95 -179 -95 -4 0 -12 11 -18 25 -22
47 -102 122 -155 146 -72 31 -204 31 -297 0 -350 -120 -660 -455 -741 -802
l-24 -102 -102 -97 c-177 -169 -277 -222 -418 -223 -108 0 -171 22 -238 83
-55 50 -112 153 -123 222 l-6 33 119 39 c313 102 536 248 619 406 26 49 29 65
29 150 0 78 -4 102 -22 135 -77 143 -257 204 -467 160 -136 -29 -264 -105
-389 -231 -170 -172 -278 -380 -306 -594 l-11 -75 -82 -79 c-265 -253 -432
-322 -544 -224 -78 68 -98 153 -92 373 l5 163 96 110 c257 298 436 589 516
839 117 369 95 756 -43 752 -17 0 -133 -39 -257 -85z m218 -156 c23 -45 21
-185 -5 -304 -56 -254 -224 -585 -412 -814 -43 -52 -60 -67 -56 -50 3 14 24
108 47 210 100 445 239 846 334 958 36 43 69 42 92 0z m2523 -947 c14 -10 36
-37 49 -60 20 -37 23 -55 23 -141 -1 -153 -44 -313 -132 -491 -84 -172 -169
-278 -253 -318 -71 -33 -143 -31 -188 6 -50 43 -69 94 -69 196 -1 311 229 762
418 822 55 17 117 12 152 -14z m-1534 1 c69 -55 70 -216 1 -345 -38 -72 -113
-142 -206 -191 -59 -31 -171 -76 -189 -76 -10 0 10 179 29 260 35 152 135 311
221 353 44 22 117 21 144 -1z"/>
</g>
</svg>
