<?xml version="1.0" encoding="UTF-8"?>
<svg xmlns="http://www.w3.org/2000/svg" xmlns:xlink="http://www.w3.org/1999/xlink" width="5000pt" height="5000pt" viewBox="0 0 5000 5000" version="1.1">
<g id="surface1">
<path style=" stroke:none;fill-rule:nonzero;fill:rgb(0%,0%,0%);fill-opacity:1;" d="M 4432.179688 1787.832031 L 4312.160156 1787.832031 L 4312.160156 1208.738281 C 4312.160156 1205.128906 4311.589844 1201.488281 4311.105469 1197.832031 C 4310.917969 1174.835938 4303.601562 1152.25 4287.859375 1134.355469 L 3324.183594 33.519531 C 3323.894531 33.238281 3323.613281 33.140625 3323.410156 32.832031 C 3317.667969 26.414062 3310.972656 21.078125 3303.894531 16.460938 C 3301.796875 15.054688 3299.683594 13.875 3297.488281 12.660156 C 3291.351562 9.308594 3284.847656 6.535156 3278.148438 4.527344 C 3276.332031 4.019531 3274.699219 3.277344 3272.886719 2.804688 C 3265.609375 1.078125 3258.050781 0 3250.390625 0 L 882.03125 0 C 773.882812 0 686.027344 87.957031 686.027344 196.015625 L 686.027344 1787.785156 L 566.035156 1787.785156 C 411.324219 1787.785156 285.878906 1913.175781 285.878906 2067.941406 L 285.878906 3524.792969 C 285.878906 3679.445312 411.324219 3804.917969 566.035156 3804.917969 L 686.035156 3804.917969 L 686.035156 4802.179688 C 686.035156 4910.226562 773.894531 4998.195312 882.042969 4998.195312 L 4116.160156 4998.195312 C 4224.210938 4998.195312 4312.167969 4910.234375 4312.167969 4802.179688 L 4312.167969 3804.917969 L 4432.1875 3804.917969 C 4586.851562 3804.917969 4712.324219 3679.445312 4712.324219 3524.792969 L 4712.324219 2067.984375 C 4712.3125 1913.230469 4586.84375 1787.832031 4432.179688 1787.832031 Z M 882.03125 196.050781 L 3152.386719 196.050781 L 3152.386719 1198.894531 C 3152.386719 1253.039062 3196.316406 1296.898438 3250.390625 1296.898438 L 4116.152344 1296.898438 L 4116.152344 1787.894531 L 882.03125 1787.894531 Z M 3241.105469 3477.414062 L 3145.5 3733.613281 C 2937.152344 3672.792969 2763.4375 3609.863281 2568.003906 3527.269531 C 2535.460938 3514.347656 2500.726562 3507.75 2465.980469 3505.644531 C 2135.933594 3484.011719 1827.613281 3240.816406 1827.613281 2763.050781 C 1827.613281 2324.355469 2105.570312 1994.335938 2541.96875 1994.335938 C 2989.308594 1994.335938 3234.699219 2333.085938 3234.699219 2732.613281 C 3234.699219 3064.910156 3080.515625 3299.292969 2887.1875 3386.097656 L 2887.1875 3394.863281 C 3000.117188 3427.550781 3126.070312 3453.574219 3241.105469 3477.414062 Z M 665.734375 3414.4375 L 733.023438 3140.90625 C 821.960938 3186.46875 958.820312 3232.070312 1099.917969 3232.070312 C 1252.015625 3232.070312 1332.222656 3169.046875 1332.222656 3073.53125 C 1332.222656 2982.3125 1262.839844 2930.253906 1086.921875 2867.277344 C 843.738281 2782.578125 685.152344 2647.914062 685.152344 2435.109375 C 685.152344 2185.4375 893.71875 1994.335938 1238.9375 1994.335938 C 1403.957031 1994.335938 1525.597656 2029.074219 1612.433594 2068.121094 L 1538.519531 2335.191406 C 1479.972656 2307.003906 1375.742188 2265.753906 1232.449219 2265.753906 C 1089.027344 2265.753906 1019.644531 2330.851562 1019.644531 2406.824219 C 1019.644531 2500.234375 1102.125 2541.433594 1290.972656 2613.078125 C 1549.355469 2708.585938 1671.070312 2843.25 1671.070312 3049.589844 C 1671.070312 3294.882812 1482.125 3503.429688 1080.390625 3503.429688 C 913.167969 3503.539062 748.167969 3460.089844 665.734375 3414.4375 Z M 4116.160156 4749.121094 L 882.03125 4749.121094 L 882.03125 3804.917969 L 4116.152344 3804.917969 L 4116.152344 4749.121094 Z M 4366.050781 3481.722656 L 3451.859375 3481.722656 L 3451.859375 2018.238281 L 3784.054688 2018.238281 L 3784.054688 3203.773438 L 4366.050781 3203.773438 Z M 4366.050781 3481.722656 "/>
<path style=" stroke:none;fill-rule:nonzero;fill:rgb(0%,0%,0%);fill-opacity:1;" d="M 2533.210938 2257.078125 C 2307.441406 2257.078125 2177.113281 2478.566406 2177.113281 2752.1875 C 2174.863281 3030.171875 2309.5 3242.929688 2531.035156 3242.929688 C 2754.636719 3242.929688 2885.035156 3032.277344 2885.035156 2745.734375 C 2885.035156 2478.566406 2759.136719 2257.078125 2533.210938 2257.078125 Z M 2533.210938 2257.078125 "/>
</g>
</svg>
