<?xml version="1.0" standalone="no"?>
<!DOCTYPE svg PUBLIC "-//W3C//DTD SVG 20010904//EN"
 "http://www.w3.org/TR/2001/REC-SVG-20010904/DTD/svg10.dtd">
<svg version="1.0" xmlns="http://www.w3.org/2000/svg"
 width="3528.000000pt" height="2111.000000pt" viewBox="0 0 3528.000000 2111.000000"
 preserveAspectRatio="xMidYMid meet">

<g transform="translate(0.000000,2111.000000) scale(0.100000,-0.100000)"
fill="#000000" stroke="none">
<path d="M12837 15250 c-33 -27 -57 -70 -57 -105 0 -27 1541 -3973 1582 -4053
48 -91 165 -185 278 -224 l65 -23 3085 0 3085 0 57 23 c61 25 150 80 155 97 2
6 -1155 622 -2569 1369 -1415 748 -3241 1713 -4058 2144 -1350 714 -1490 786
-1540 790 -46 3 -60 0 -83 -18z"/>
<path d="M26040 7220 l0 -2500 275 0 275 0 0 2500 0 2500 -275 0 -275 0 0
-2500z"/>
<path d="M27645 9703 c-77 -28 -143 -79 -184 -143 -50 -77 -64 -131 -60 -227
7 -136 80 -248 205 -309 53 -26 69 -29 159 -29 91 0 105 3 158 29 71 36 140
108 175 184 23 49 27 70 27 147 0 78 -4 98 -28 151 -34 74 -102 143 -177 180
-72 36 -199 44 -275 17z"/>
<path d="M6436 9585 c-285 -41 -501 -120 -714 -261 -404 -269 -606 -706 -553
-1194 31 -281 121 -481 295 -655 170 -169 376 -281 696 -378 153 -47 298 -78
580 -127 679 -118 967 -253 1095 -513 92 -189 108 -467 39 -677 -88 -264 -310
-475 -606 -574 -367 -124 -905 -81 -1216 96 -93 53 -227 178 -287 267 -81 123
-148 304 -180 486 -9 50 -18 100 -21 113 l-4 22 -281 0 -280 0 7 -52 c12 -105
57 -305 90 -407 79 -240 197 -436 363 -601 249 -247 565 -389 991 -444 675
-88 1247 72 1631 454 301 300 432 677 390 1119 -60 617 -405 949 -1185 1141
-89 22 -282 60 -431 86 -561 96 -812 184 -976 344 -124 122 -171 256 -172 495
0 135 2 159 27 240 115 380 495 584 1046 562 557 -23 855 -225 998 -677 16
-52 33 -114 37 -137 l7 -43 259 0 259 0 0 35 c0 59 -50 275 -87 375 -185 501
-578 799 -1182 896 -137 22 -508 27 -635 9z"/>
<path d="M9328 8753 l-3 -418 -253 -3 -252 -2 2 -233 3 -232 253 -3 252 -2 0
-1199 c0 -1020 2 -1211 15 -1284 60 -343 267 -571 602 -664 93 -25 109 -27
333 -27 209 -1 244 2 320 21 47 12 97 26 113 32 l27 11 0 235 c0 224 -1 235
-18 226 -39 -21 -183 -51 -292 -61 -293 -27 -453 61 -524 289 -20 65 -21 86
-24 1243 l-3 1178 408 2 408 3 3 233 2 232 -410 0 -410 0 0 420 0 420 -275 0
-275 0 -2 -417z"/>
<path d="M29138 8753 l-3 -418 -247 -3 -248 -2 0 -235 0 -235 250 0 249 0 3
-1232 3 -1233 23 -85 c13 -47 46 -132 74 -189 43 -89 62 -116 136 -191 119
-120 234 -181 425 -227 59 -15 115 -18 302 -17 221 1 234 2 340 30 l110 29 3
234 2 233 -22 -5 c-13 -3 -59 -14 -102 -26 -44 -12 -131 -26 -193 -32 -299
-27 -457 64 -529 306 -17 56 -18 140 -21 1233 l-4 1172 411 0 410 0 0 235 0
235 -410 0 -410 0 0 420 0 420 -275 0 -275 0 -2 -417z"/>
<path d="M12835 8383 c-306 -37 -509 -119 -707 -285 -65 -56 -165 -176 -237
-288 l-61 -94 0 307 0 307 -280 0 -280 0 0 -1805 0 -1805 280 0 279 0 4 1113
c3 1093 3 1114 24 1205 72 311 191 501 402 637 158 103 378 168 644 191 l77 6
0 259 0 259 -57 -1 c-32 -1 -71 -4 -88 -6z"/>
<path d="M14461 8375 c-387 -59 -731 -243 -947 -506 -248 -302 -371 -644 -405
-1122 -32 -452 30 -848 182 -1167 322 -674 1011 -1011 1829 -894 598 86 1013
422 1140 924 12 47 24 93 26 103 5 16 -13 17 -274 17 l-279 0 -18 -67 c-61
-226 -216 -389 -444 -468 -230 -81 -552 -92 -800 -29 -369 93 -626 371 -732
791 -27 109 -59 323 -59 400 l0 33 1316 0 1316 0 -4 273 c-5 297 -18 407 -69
607 -50 195 -121 354 -232 520 -65 98 -251 282 -352 349 -157 103 -347 180
-550 222 -133 27 -503 35 -644 14z m579 -478 c171 -46 281 -106 393 -215 185
-181 277 -415 310 -794 l5 -48 -1025 0 -1025 0 7 43 c3 23 19 96 35 162 69
279 172 469 345 633 80 76 113 99 208 146 99 50 200 83 302 100 17 2 102 3
190 1 133 -3 176 -7 255 -28z"/>
<path d="M17990 8380 c-440 -61 -751 -233 -938 -518 -94 -143 -161 -330 -178
-497 l-7 -65 275 0 274 0 26 104 c86 347 308 508 724 523 224 9 364 -15 499
-86 138 -71 224 -188 272 -368 24 -92 26 -116 31 -379 l4 -281 -403 -6 c-400
-6 -544 -16 -749 -52 -380 -66 -670 -201 -856 -398 -179 -189 -254 -407 -241
-701 11 -263 83 -462 229 -634 220 -258 640 -394 1087 -353 363 33 584 133
819 367 l112 113 0 -215 0 -214 280 0 281 0 -4 1363 c-4 1491 -1 1414 -63
1617 -87 283 -270 483 -539 588 -193 76 -309 94 -620 98 -137 1 -279 -1 -315
-6z m977 -2282 c-4 -350 -7 -370 -77 -513 -118 -239 -374 -406 -708 -461 -145
-24 -364 -22 -475 5 -267 64 -399 217 -427 498 -43 423 215 681 757 757 157
23 155 22 561 24 l374 2 -5 -312z"/>
<path d="M21635 8374 c-319 -56 -589 -227 -756 -478 l-59 -90 0 262 0 262
-275 0 -275 0 0 -1805 0 -1805 275 0 275 0 0 1148 c0 730 4 1178 10 1232 40
328 211 578 485 710 161 78 239 95 435 95 187 0 256 -14 375 -71 175 -85 279
-236 336 -489 l23 -100 3 -1262 4 -1263 274 0 275 0 0 1129 c0 719 4 1166 11
1232 34 340 201 590 484 728 156 76 247 96 440 96 182 -1 254 -14 371 -71 174
-85 279 -237 337 -489 21 -88 21 -115 24 -1357 l4 -1268 274 0 275 0 0 1238
c0 783 -4 1269 -10 1322 -40 331 -143 583 -319 782 -102 115 -299 232 -473
282 -133 38 -242 49 -428 43 -233 -7 -403 -49 -605 -147 -195 -94 -383 -257
-485 -418 -25 -39 -47 -72 -50 -72 -3 0 -13 20 -23 44 -27 66 -93 172 -151
244 -139 173 -364 296 -617 337 -117 19 -355 18 -464 -1z"/>
<path d="M27500 6525 l0 -1805 275 0 275 0 0 1805 0 1805 -275 0 -275 0 0
-1805z"/>
</g>
</svg>
