<?xml version="1.0" standalone="no"?>
<!DOCTYPE svg PUBLIC "-//W3C//DTD SVG 20010904//EN"
 "http://www.w3.org/TR/2001/REC-SVG-20010904/DTD/svg10.dtd">
<svg version="1.0" xmlns="http://www.w3.org/2000/svg"
 width="3876.000000pt" height="741.000000pt" viewBox="0 0 3876.000000 741.000000"
 preserveAspectRatio="xMidYMid meet">

<g transform="translate(0.000000,741.000000) scale(0.100000,-0.100000)"
fill="#000000" stroke="none">
<path d="M4002 5705 l3 -578 985 -563 c542 -310 988 -564 993 -564 9 0 9 705
0 960 l-6 186 -929 534 c-512 294 -957 550 -989 568 l-59 34 2 -577z"/>
<path d="M2 4578 l3 -562 190 -114 c338 -204 796 -472 806 -472 6 0 8 219 7
572 l-3 573 -495 282 c-272 155 -498 282 -503 282 -4 1 -6 -252 -5 -561z"/>
<path d="M2493 4273 l-493 -277 0 -1700 1 -1701 489 -295 c269 -162 496 -296
505 -298 13 -3 15 115 15 1112 0 614 2 1116 5 1116 3 0 226 -117 495 -260 269
-143 492 -260 495 -260 3 0 5 261 5 579 l0 579 -499 277 -498 277 -7 76 c-3
41 -7 264 -7 496 -1 232 -4 451 -8 489 l-6 67 -492 -277z"/>
</g>
</svg>
